# xmcd
# 
# Track frame offsets:
#     150
#     39635
#     74265
#     107627
# 
# Disc length: 2087
# 
# Revision: 0
# Processed by: cddbd v1.5.2PL0 Copyright (c) Steve Scherf et al.
# Submitted via: BonkEnc v1.0.8
# 
DISCID=30082504
DTITLE=Art Farmer, Jim Hall - Big blues
DYEAR=1978
DGENRE=Jazz
TTITLE0=Whisper Not
TTITLE1=A Child Is Born
TTITLE2=Big Blues
TTITLE3=Pavane For A Dead Princess
EXTD=YEAR: 1978
EXTT0=
EXTT1=
EXTT2=
EXTT3=
PLAYORDER=
